<svg xmlns="http://www.w3.org/2000/svg" viewBox="0 0 333.52 251.5"><defs><style>.cls-1{fill:#7c82c7;}.cls-2,.cls-3{fill-rule:evenodd;}.cls-3{fill:#b2b2b2;}</style></defs><g id="Layer_2" data-name="Layer 2"><g id="OBJECTS"><path class="cls-1" d="M93.9,149.43c-4-7.61-4.93-24.42-.9-31.22,1.47-2.47,4.35-1.07,6.61-1.35,4.18-.53,5.73,2.07,6.73,5.52a41.51,41.51,0,0,0,8.9-.3c1-.14,2.68-.57,4.54-.94a12.18,12.18,0,0,1,3.73-7.5c2.65-2.17,5.41-.75,9.17-.11a4.45,4.45,0,0,1,2.47,1.61c1.42,1.67,2.8,4.87,2.85,10.39.05,6-1.53,13.14-3.6,19.69a.35.35,0,0,1-.15.2l.14.54a47.72,47.72,0,0,1,7.13-.48c.13-.19.27-.38.42-.56-4.55-7.67-3.39-19.14,3.53-25a14.13,14.13,0,0,1,5.79-3,21.38,21.38,0,0,1,4.7-2.47c2.8-1.06,5.65-1.52,7.22-1.09a22.8,22.8,0,0,1,9.66-.85c3.47.55,6.65,2.29,6.66,5.7a8.51,8.51,0,0,1,7.07,3.48c3.45,4.34,3.36,9.87,1.32,14.66-1.15,2.68-1,1.24-1.1,3.93a7.3,7.3,0,0,1,3.47,5.8.41.41,0,0,1,.23-.06c12.95.4,25.5,1.17,38.21,2.65l1.53-34.61a.5.5,0,0,1,.64-.44l57.44,17.6a.49.49,0,0,1,.34.52L288,138.4l9.11-.74a9.07,9.07,0,0,1,5.14,1.55l.35.21a26.42,26.42,0,0,0-18.5-43.7,75.95,75.95,0,0,0-113.3-57.25A43.67,43.67,0,1,0,90.35,66.76a61.2,61.2,0,0,0-51.8,92.76c1,.41,1.94.78,3,1.13q3.38-1,7-2c2.24-.6,4.55-1.19,6.91-1.76.78-4.69,1.87-9.18,2.07-10l-2-5.87a.53.53,0,0,1,.1-.49c-2.23-.22-5.61-.84-7-.87-8.51-.17-15-3.6-5.48-9.74C50,125.49,61.68,121,70,123.63c4.19,1.35,3.18,10,2.07,13a2.2,2.2,0,0,1,1.66,1.17,35.27,35.27,0,0,1,3.1,14.62c5.67-1,11.12-1.83,16.91-2.56l.13-.41ZM286.78,59a6.12,6.12,0,1,1-6.11,6.12A6.12,6.12,0,0,1,286.78,59ZM198.89,15a5,5,0,1,1-5,5,5,5,0,0,1,5-5ZM179.7,10.57a9.18,9.18,0,1,1-9.18,9.18,9.18,9.18,0,0,1,9.18-9.18ZM296.8,73.43a8.9,8.9,0,1,1-8.9,8.9,8.9,8.9,0,0,1,8.9-8.9ZM39.8,46.17a5.57,5.57,0,1,1-5.57,5.56,5.56,5.56,0,0,1,5.57-5.56Zm35-28.93A7.79,7.79,0,1,1,67.06,25a7.79,7.79,0,0,1,7.78-7.79ZM64,36.71A15.3,15.3,0,1,1,48.7,52,15.3,15.3,0,0,1,64,36.71Z"/><path class="cls-2" d="M214.94,215,209.67,211l0,0,0,0a1.83,1.83,0,0,1-.1-1.5c.49-1.32,2.3-2,3.52-2.36l.37-.11.07.39a1.17,1.17,0,0,0,.09.32,4.63,4.63,0,0,0,1.46,1.62l7.17,5.23-.9.09q-3,.3-6.09.55h-.13l-.11-.08ZM31.1,188.33a17.62,17.62,0,0,1-4.85,3.72l-.23.12-.18-.19a9.61,9.61,0,0,1-3-6.44v-.1l.05-.08c.69-1.07,1.44-2.09,2.23-3.09,1.84-2.37,3.87-4.59,5.78-6.9l.27-.34.26.35a7.11,7.11,0,0,0,2.21,1.91c6.64,3.68,14.17,6,21.5,7.93l.64.17-.51.42c-.16.14-1.12.84-1,1.08s.92.26,1.08.3l.75.15-.61.46a16.2,16.2,0,0,0-4.57,5.95l-.12.24-.25-.06c-3-.63-6-1.37-9-2.16-2.19-.58-4.39-1.19-6.55-1.89a21.6,21.6,0,0,1-3.89-1.55Zm-5.69,4.13a19,19,0,0,1-7.83,1.89c-1.82,0-4.24-.4-5.3-2.08s-.09-4.1.94-5.68l.46-.7.17.82a7.56,7.56,0,0,0,.39,1.39,3.69,3.69,0,0,0,2.57,2.54c2.13.4,4-1.71,5-3.37l.38-.65.47-.81.16.93a10.38,10.38,0,0,0,2.75,5.18l.31.35-.42.19Zm18.75,31.08c6.43,2.65,12.84,5.29,19.42,7.53,6.31,2.16,14.86,4.77,21.56,4.6a59.33,59.33,0,0,0,9.39-1.15,118.4,118.4,0,0,0,11.61-2.85l.1,0,.12,0q9.12.93,18.27,1.54l1.25.09-1.11.56a127.28,127.28,0,0,1-19.29,7.59,162.11,162.11,0,0,1-20.7,5.13c-3.91.68-10.41,1.68-14.32.87a118,118,0,0,1-19.3-6.06C45.21,239,28,231.55,24.9,225.88c-2.52-4.57,3.8-7.89,7.08-9.4l.08,0h.23l.09.09c3.15,3,7.79,5.35,11.78,7Zm81.94,9.58q-8.86-.57-17.72-1.44l-1.68-.17,1.61-.5q4.16-1.31,8.22-2.89c5.84-2.28,12.29-5.23,17.37-8.93a9.44,9.44,0,0,0,2.27-2.32l.1-.16h.53l.09.19a11.73,11.73,0,0,1,1,4.32c.15,5.13-7.78,9.77-11.62,11.83l-.09,0Zm10.58-32.35-9.81,2.86-.1,0c-1.73-.69-3.5-1.28-5.28-1.8l-.37-.11.15-.36a11.17,11.17,0,0,0,.84-2.82l0-.23.24-.07,1.54-3.75.27,0c6.73-.17,15.32-.71,21.69-2.87l.25-.08.14.22c3.33,4.95,8.95,10.68,15.38,10.47a11.23,11.23,0,0,0,4.28-.89l.68-.3-.21.71c-3.8,12.86-22.39,3.4-29.73-1ZM171,193a31,31,0,0,0-.6-8.54l-.11-.58.56.19a35.25,35.25,0,0,0,6.86,1.61l.29,0v.3c0,2.42.15,4.85.34,7.27l0,.37H178q-3.34,0-6.68-.29l-.35,0,0-.35Zm112.5,1.3-53.66,7.79-23.85-13A75,75,0,0,1,195.6,192l-.43.09,0-.44c.11-2.15.16-4.3.17-6.44V185l.27-.06a42.57,42.57,0,0,0,5-1.34l.16,0,.14.09c.5.34,1.21.68,1.75,1l3.76,2,2,1L213,190l8.31,4.27c1.29.66,2.64,1.41,3.94,2,5.12,2.1,3.57,2.45,9.36,1.46l48.05-8.22c.21,0,.16-1.24.17-1.39l0-.57,12.77,7.77a21.87,21.87,0,0,0,3.29-.23l1.35-.12-1.14.74a53.85,53.85,0,0,1-7.88,4.16l-.18.08-7.59-5.66Zm17,.73c.32-.23,13-1.2,14.09-1.29l9.05-.76,3.19-.29c.51-.05,1.06-.08,1.57-.16l.5-.08-.11.49a16.1,16.1,0,0,1-3.06,6.27l-.08.11-.13,0c-9.53,1.73-19.18,3.23-28.77,4.68l-.14,0-5.33-4,.53-.24a49,49,0,0,0,8.69-4.8Zm27.7.28a13.52,13.52,0,0,0,.85-2.8l0-.17.15-.07a3.75,3.75,0,0,0,1.22-1l.24-.3.27.28c2.62,2.7,4.22,6.1-.81,7.18-1.14.24-2.28.46-3.43.67l-.82.16.48-.69a17.24,17.24,0,0,0,1.82-3.28Zm-97.24,25.32c2.71,1.89,4.78,1,7.77.61,2.1-.25,4.29-.68,6.37-1l11.07-1.93q5-.87,9.94-1.7c2.26-.38,4.59-.79,6.86-1.05a9,9,0,0,0,1-.17l.27-.06.11.25c.59,1.23,0,2.09-1.24,2.44-.81.22-1.69.38-2.51.55-1.57.32-3.16.63-4.74.93q-6.62,1.28-13.24,2.5-10.35,1.94-20.71,3.82h0a6.23,6.23,0,0,1-2.06-.29,15.26,15.26,0,0,1-5.14-2.84c-2.89-2.31-5.81-4.56-8.73-6.82l-.69-.54.87-.08c2.05-.17,4.09-.36,6.14-.57h.13l.1.07q4.2,3,8.41,5.93Zm-26.07-3.9a25.14,25.14,0,0,1-3.7,1.68c-10.67,4-22.67,3.52-33.62,1a22.13,22.13,0,0,1-4.22-1.37l-1.45-.65h2.92c13.3,0,26.61-.4,39.88-1.27l1.46-.1-1.27.74ZM167,208.3c.36,2.48,4.59,3.94,6.61,4.52a50.69,50.69,0,0,0,13.88,1.66c5.18,0,12.69-.76,17.17-3.55a9.1,9.1,0,0,0,1.52-1.18l.23-.23.24.22c2.17,2,2,4.12-.31,6l-.09.07h-.1c-14.74,1-29.56,1.4-44.33,1.35h-.11l-.08-.07a3.75,3.75,0,0,1-1.84-2.81c-.14-3,4.46-5.28,6.74-6.21l.41-.17.06.43Z"/><path class="cls-2" d="M149.59,118.36c-9.32,4.21-11.79,17.4-7,25.85a7.83,7.83,0,0,1,1.76-1.31c-2.51-8.38-.81-18.15,5.26-24.54Zm29.79,2c4.68,2.39,7.42,11.27,7.47,15,0,.52,0,1,0,1.5a21.4,21.4,0,0,0,1.46-7c0-4.88-3.39-10.82-8.83-11a14.62,14.62,0,0,1-.15,1.53Zm-17.61-5.39c-5.76,2.47-10.22,10-11.68,15.86a23.24,23.24,0,0,0-.13,11.3,9.37,9.37,0,0,1,4.55,2.34,10,10,0,0,0,1.71-8.62c-1.86-2.46-.46-8.16.93-11.49a.25.25,0,0,1,.47.19c-1.07,2.72-2.15,8-.88,10.36s4.46-.83,5.18-2.09a13.11,13.11,0,0,0,1.23-2.72c1.69-5.07,1.43-1.76.92.78-.42,2.1-1.34,8.26,2.37,4.56,2.41-2.4,3.55-5,4.64-8.15.45-1.29.8-2.48,1.06-3.4.34-3.25,1-3.16.81.43-.14,2.07-.21,4.76-.28,5.23-.68,4.11.33,3.57,2.33.47a33.64,33.64,0,0,0,3.47-9.75c1.45-8.2-9.89-7.56-15-5.93-.59.19-1.16.39-1.72.63Z"/><path class="cls-3" d="M81.6,163.73c-7.79,1.21-29.39,2.79-43.55-3.36-2-.87-3.17.31-3.78.57-4.29,3.21-5.74,12.77-.29,15.79,6.68,3.7,14.42,6.1,22.07,8.07a23.79,23.79,0,0,1,10.6-4.4l-.7-1a.48.48,0,0,1,.32-.76,27.22,27.22,0,0,1,14.47,1.55l-.41-.92a.49.49,0,0,1,.52-.67,28.46,28.46,0,0,1,9.74,3.59c-.24-7.61,1.45-20.39,6.36-26.55a16.59,16.59,0,0,0-6,1.51c-5.63,2.49-8.8,6.46-9.3,6.54Z"/><path class="cls-3" d="M55.62,163.47a119.19,119.19,0,0,0,25.67-.66c.19-.1,4.81-5,10.73-7.07-4.68.54-9,.55-13.83,1.74a44,44,0,0,0-10.65,4.19.24.24,0,0,1-.24-.41,37.67,37.67,0,0,1,8.06-4,.39.39,0,0,1,0-.15c1.44-5-.08-13.54-2.51-18.91a1.27,1.27,0,0,0-1-.62c-3.76-.87-13.73,2.95-15.33,3.56.24.71,2,5.5,1.89,5.84-.53,2.12-2.61,11.45-2.84,16.51Z"/><path class="cls-1" d="M98.26,155.62c-5.11,5.38-6.87,19-6.71,26.17a15.34,15.34,0,0,1,6.07-4.21l.1,0a29.27,29.27,0,0,1,2.33-2.26c1.81-1.55,5.52-4.16,7.66-3.09,2.32,1.16,1,5.44.21,7.49a19.56,19.56,0,0,1,9.84,6.68l0,0a15.35,15.35,0,0,1,4.78-2.08c5.78-1.08,3,6.73,1.94,9.56,6.53-.18,15-.81,20.94-2.73a46.55,46.55,0,0,1-5.6-12.56c-1-3.49-.28-4.66.94-.26q.3,1.11.69,2.25a46.37,46.37,0,0,0,5,10.42l.18.27a33.58,33.58,0,0,0,4.24,5.23c3.22,3.2,6.89,5.25,10.7,5.13,5.17-.17,7.92-2.93,8.64-7.73a29.69,29.69,0,0,0-.59-9.92.47.47,0,0,1-.09-.44c-.88-4.14-2.14-7.75-2.58-9.27s-.73-2.37-2.07-3.16a10.19,10.19,0,0,1-1.17,1.65,4.22,4.22,0,0,0,1.19-.55.38.38,0,0,1,.46.61c-2.35,1.87-6.76,1.8-9.48.95-.59-.18-3.38-1.32-2.91-1.91.29-.37.78.52,3.36,1.07l0-2.71-.23-.51c-.39.15-3.37.33-3.73,1.37-.57,1.66-.55,5.28-.23,9.2.2,2.5,1.25,11.71,2.27,13.82a.21.21,0,0,1-.37.2c-2.71-4.89-3.86-19.92-2.6-23.54.49-1.41,3.37-1.88,4.29-2-.18-.49-.38-1.09-.58-1.77-.14-.47-.27-1-.39-1.51-5.61-4.45-10.45-2.42-14.7.9-.8.63-1.23.36-.28-.54,4.94-4.67,10.85-4.84,14.67-1.87l-.4-3.68a7.41,7.41,0,0,1-5.11,1.42,9.94,9.94,0,0,1-9-7.85c-8.29,2.2-26.95.46-34.61.19a39.87,39.87,0,0,0-4.48,0c-1.74.16-2.24,1.3-2.72,1.57Z"/><path class="cls-1" d="M167,171.73c.78,1.24,2.73,8,3.48,11.54a34.68,34.68,0,0,0,7.14,1.76c0-.77,0-1.53,0-2.3a.43.43,0,0,1,.1-.27c-.3-.8.17-1.53,1.29-2.13,3.8-2.07,17.85-2.19,16.46,1.28.34.26.19,2.16.19,2.64a31,31,0,0,0,8.23-2.8c1-.58,1.13-4.74,1-5.93-.48-5.08-2.73-5.08-2.86-5.75a.2.2,0,0,1-.11,0c-6.44.87-9.89,1.39-14.08,1.39-4,0-11.51-2.56-15.91-4.5a.31.31,0,0,1-.1-.05,11.61,11.61,0,0,1-5.7.38,8.57,8.57,0,0,1-.81,3.22,4.25,4.25,0,0,1,1.66,1.49Z"/><path class="cls-3" d="M287.87,139.34l-1.27,12.25,6,3.63c.35.08,28.71-2.28,30.51-2.42a16.19,16.19,0,0,1,1.83,0c-2.67-1.62-17.69-9.3-23.24-12.76-1.37-.85-3.53-1.64-4.47-1.44l-9.38.76Z"/><path class="cls-1" d="M322.4,161l-28.62,2.57a.51.51,0,0,1-.3-.06L285.84,159l-.21,2,7.69,4.4c.37.09,28.69-2.28,30.51-2.42a14.66,14.66,0,0,1,1.87,0l-3.3-1.9Z"/><path class="cls-1" d="M313.91,181.16c-8.81.62-20.94,1.44-20.94,1.44a.42.42,0,0,1-.29-.07L284,177l-.14,1.36c.94.58,10.8,6.69,11.23,6.79l23.46-1.87a82.72,82.72,0,0,1,8.92-.57l-3.46-2a.47.47,0,0,1-.24-.43c-.94.42-4.46.53-9.84.91Z"/><path class="cls-3" d="M272.86,214.9c3.18-.35,3.22-1.31.62-3l-14.11-9.42v0a7.92,7.92,0,0,0-6.1-1.47l-36.61,5.25c-2.63.23-3.48.75-1.25,2.46,3,2.36,14.26,10.23,15.89,11.37,2.52,1.76,4.37.86,7.32.5,2.41-.29,17.73-3.07,27.36-4.66,3.08-.51,5.58-.89,6.89-1Zm-14.79-11.66h0c4.32,2.82,7.32,5,11,7.33,4.86,3.09,2.87,3-.75,3.59-2.67.46-12.79,2.25-20.42,3.56-4.34.75-7.88,1.34-8.78,1.45-2.47.3-2.7.79-4.9-.75l-12.88-9c-1.36-.93-2.69-2.31-.53-2.84l32-4.62a6.82,6.82,0,0,1,5.25,1.25Z"/><path class="cls-1" d="M180.43,208.07c.16-1.58,3.94-3.21,5.09-3.53-1.88-2.21-6-1.9-6.3-2a26.3,26.3,0,0,0-4.18.26c-4.52.69-6,3.39-2.68,4.52a24.87,24.87,0,0,0,8.07,1,1,1,0,0,1,0-.24Z"/><path class="cls-1" d="M190.88,205c-2.73-.15-5.41,0-7.77,1.6-.41.26-1.73.87-1.8,1.55-.15,1.53,6,2.41,6.23,2.45a25.39,25.39,0,0,0,6.21-.2c1.17-.21,3.23-.87,3.76-1.89a.45.45,0,0,1,.09-.55,1.74,1.74,0,0,0,0-.22c-.75-2.28-4.79-2.64-6.67-2.74Z"/><path class="cls-1" d="M194.86,204.68c1.52.45,3.38,1.45,3.61,3.16,2.46-.09,4.11-.65,4.95-1.43a1.39,1.39,0,0,0,.35-1.83c-1.85-3.14-11.94-3.18-14.63-.51a18.94,18.94,0,0,1,5.72.61Z"/><path class="cls-3" d="M73.71,217.32a39.33,39.33,0,0,0-19.32-6.1,29.7,29.7,0,0,0-6.35.33.11.11,0,0,1-.06-.22,15.9,15.9,0,0,1,5.57-1.17A17.1,17.1,0,0,1,51,206.38a9.28,9.28,0,0,0-3.87-1.81,9.71,9.71,0,0,0-4.35.27.11.11,0,0,1-.15-.06c-.14-.36,4-2.17,7.67-.05a11.22,11.22,0,0,1-.48-5.91A57,57,0,0,0,40.54,202a37.71,37.71,0,0,0-8.84,5.18A5,5,0,0,0,30,210.24c-.64,5.29,8.35,10.2,14.45,12.72C54.74,227.23,74,235.33,85.12,235c13-.33,37.18-8.18,48.42-16.35,2-1.45,5-5,1.83-9-2-2.47-6.21-5-14.2-7.39a13.78,13.78,0,0,1-2.23,3c0,.08,0,.18,0,.31a7.82,7.82,0,0,1-.54,3.81l1.61-.16c2.4-.09,1.92,0,.15.51-4.43,1.27-7.89,2.3-11.37,5.56a35.76,35.76,0,0,0-5,6.31.11.11,0,0,1-.15,0c-.29-.14,1.25-3,1.59-3.57-1.79.31-6,.79-7.23-.58-1.19.19-3.35-.11-3.42-1.63-1.07-.09-1.94-.14-1.84-1.52a16.58,16.58,0,0,0-7.8-.64l-1.72,1.28c.24.08.47.16.68.25A10.18,10.18,0,0,1,89.2,220a.12.12,0,0,1-.19.13,11.32,11.32,0,0,0-3.17-2.82,23.09,23.09,0,0,0-3.75-1.6,21.31,21.31,0,0,1-2.3,1,24.7,24.7,0,0,1-4.41,1.1c.22.2,1.46,1.2,1.22,1.44s-1.72-1.36-2.07-1.32-.24-.2-.82-.56Z"/><path class="cls-3" d="M298.06,237.86c0,3.54,7.87,6.37,17.66,6.32s17.76-3,17.8-6.5-7.87-6.36-17.66-6.31-17.76,3-17.8,6.49Zm-113.33-3.58a5.92,5.92,0,0,0-.85,2.93c-.09,8,17.8,14.4,40,14.29s40.18-6.69,40.26-14.7a5.25,5.25,0,0,0-.2-1.52,92.29,92.29,0,0,0,11,.59c19-.09,34.5-5.74,34.58-12.61,0-3.13-3.13-6-8.37-8.12a227,227,0,0,1-35.25,10.15c-24.11,5.06-52.34,8-81.15,9Zm86.47,7.51c0,2.46,5.47,4.43,12.29,4.4s12.35-2.06,12.38-4.52-5.48-4.43-12.29-4.4-12.36,2.06-12.38,4.52ZM302,244.54c-5.05,0-9.17,1.52-9.19,3.35s4.07,3.29,9.12,3.26,9.17-1.53,9.19-3.35-4.06-3.29-9.12-3.26Z"/><path class="cls-2" d="M187.42,211.47l.1,0c3,0,7.87.41,10.4-2.07a2,2,0,0,0,.46-.69c3-.09,6.16-1,6.48-3.13,5.87,2.15-2.28,8.7-19.07,8.23-6.93-.2-11.93-1.26-14.95-2.68-3.62-1.7-4.35-3.91-1.17-5.72-.11,2.73,4.76,3.42,6.76,3.63a33.76,33.76,0,0,0,4.38.13c1.32,1.57,5.48,2.12,6.61,2.28Zm-4.27-53.58.08,3.09a.41.41,0,0,0,.23.36l14.94,7.33a.49.49,0,0,0,.41,0s7.68-3.28,14.32-6.16c5.07-2.19,9.52-4.16,9.52-4.16.65-.29-.17-.77-.09-1.44,0-.08,0-.16.05-.25l5.71.69-.25,5.45c-.93.19-8.13,1.56-8.38,1.74-5.34-2.93-13,.73-16.13,5.29-.27-.24-.76-.71-1.16-.59a.5.5,0,0,0-.56-.43c-6.36.85-9.84,1.37-14,1.38-3.7,0-10.56-2.3-14.65-4a21.16,21.16,0,0,0,9.79-8.55.48.48,0,0,0,.12.26Zm39.79-2c.1-.19.64-1.07,0-1.26l-13.7-4.39a8.33,8.33,0,0,0-5.76,0l-10.07,3.45-5-.18a11.41,11.41,0,0,0,1.87-6.6.37.37,0,0,0,.15,0c12.95.4,25.5,1.19,38.2,2.68l-.31,6.9-5.41-.62Zm-.78-.18a2.54,2.54,0,0,0-.29,2.12l-23.24,9.89-14.58-7-.11-2.38,14.85,7a.48.48,0,0,0,.39,0l23-9.61Zm-31-1.24-7.78,2.66c.17-.28.33-.57.49-.87a5.46,5.46,0,0,0,3.94-1.93l3.35.14Zm30.58.58L199,164.29l-14.17-6.66,19.06-6.54a5.61,5.61,0,0,1,2.5-.46,8.09,8.09,0,0,1,2.6.47L221.72,155Zm-127,48.29c-1.64-.75-3.77-3.57-4.77-5.6-2.79-5.67-1.41-11.94,3.61-16.63a13.24,13.24,0,0,1,4.27-2.8.37.37,0,0,0,.24-.32c1.65-1.42,7.17-5.82,9.16-4.84,1.51.74.36,5-.05,6.39-3.49-.76-3.31,0-1.93.3A20.55,20.55,0,0,1,118.66,189c.65,1,1.35.91-.6-2.18,8-3.68,8.15-1,5.63,6.46l-1.57,4.56a.25.25,0,0,0-.11.18,14,14,0,0,1-17.54,10.11,14,14,0,0,1-1.67-.64c.79-.48,1.88-2.31,1.22-2.5-.48-.13-.46,1.16-1.63,1.72a2,2,0,0,1-2.85-1.49c1.47.63,4,.19,3.46-1.5,0-.11,1.7-4.4.67-6.26-.58-1-3.72,1.29-4.67,2.22a12.25,12.25,0,0,0-1.08,1.22c-.31,0-.68.11-.81.41a2.58,2.58,0,0,0,1.34,3.37c-1,.75-4.1-.45-2.43-3.47a.26.26,0,0,0-.44-.26,4,4,0,0,0-.83,2.37Zm-1.92-.58a9.49,9.49,0,0,0-3.9-.07c-.77-4-3.76-7.18-7.75-7.28a.53.53,0,0,0-.45.81c2.25,3.47,1.86,7.32-.85,9.95-1.78-2.79-3.14-6.91-2.73-10.24a.09.09,0,0,0-.17,0,14.12,14.12,0,0,0,2.18,10.89,12,12,0,0,1-7.82,2c8.79-15.3-4.32-25.32-13.62-18.19a.3.3,0,0,0,.36.48c8.25-6,21,2.64,12.24,17.6a18.33,18.33,0,0,1-9-4.24,18.51,18.51,0,0,1-1.83-1.71c-.16-.2-.67-.11,1.4,2.16,6.78,7.41,19.57,6.41,22-1.67a8.79,8.79,0,0,0-.75-6.7c6.39,1.11,8.61,10.87,1.83,16.88-2,1.73-6.32,3.16-9.54,3.56-5.14-4.14-13.41-6.65-19.87-6.79a.48.48,0,0,0-.11-.47c-3.6-3.91-5.44-9.37-2.24-14.18a.49.49,0,0,0-.52-.74l-.68.17c1.39-2.87,2.87-5.49,5.74-7.25a.49.49,0,0,0-.16-.89l-1.2-.24a22.13,22.13,0,0,1,12.19-5.29.48.48,0,0,0,.35-.77l-.72-1a25.7,25.7,0,0,1,14.26,2.07.49.49,0,0,0,.64-.63l-.53-1.21a28.49,28.49,0,0,1,8.84,3.46,13.87,13.87,0,0,0,.23,17.28,14.49,14.49,0,0,0,2.18,2.23Zm-3.78.73a14.88,14.88,0,0,1,4.76.51c1.65.41.82.18,1.68,1a3.23,3.23,0,0,0,3.11.74,2.94,2.94,0,0,0,3.32,2.08,8.93,8.93,0,0,0,2.12,1c-1.19,1.13-4.94,1.4-6.25,1.36a4.81,4.81,0,0,0-4.85,3.3,15.55,15.55,0,0,0-6.9-.85,12,12,0,0,0,3-9.21Zm24.78-59.29c.89,0,.62-.09.9,2.3.12,1.06.29,2.57-.23,2.92a28.08,28.08,0,0,1-4.3.36c-1.28,0-1.28-.5-1.36-2.4-.11-2.61-.28-2.84.65-3,0,1,0,4.12,1,4.35,0,0,3.4.36,3.49-1a35,35,0,0,0-.13-3.57Zm-4.37-.59c-1.8.21-1.61,1.19-1.56,3.79.06,4.22,1.66,3.48,6.27,3.1,1.78-.15,1.83-1.85,1.5-4.12s-.12-3.05-1.88-3l-.22-3.17c2.84-.22,6.52-.21,8.79-2,2.49-2,3.16-11.34,3.39-12.39.38-1.73,1.55-4.3,3.2-3.51a3.09,3.09,0,0,1,1.13.93c2.33,3.84,1.46,9.47,1.5,13.62.06,5.77,3.31,11.07,2.87,16.91-9.65.75-25.43-.77-31.82-.72-2.61,0-3.11.1-4.61,1.5a25.87,25.87,0,0,0-4.49.1c0-2.76,1.88-5.2,1.85-8,0-4.5-1.43-5.43-.62-12.36.11-1,.26-1.91.43-2.85.31,2.66,1,7.13,3.94,8.16,2.65.92,7,1,10.32.86,0,.73,0,1.9,0,3.12Zm3.51,4.09-2.11.1c-.47-1.4-.58-5.81-.63-7.34l2.55-.16.19,7.4Zm0,0c.16-.06.09-.23,0,0Zm16-26.23c.3-1.26,1.84-5.1,3.63-4.67a.39.39,0,0,0,.2-.75c-2.55-.75-4.33,3.12-4.6,5.08-2.37-.85-5.23-.54-7.69-.1a11.33,11.33,0,0,1,3.5-6.64c2.28-1.81,5.23-.41,8.43.15a3.49,3.49,0,0,1,1.89,1.28c4.94,5.79,1.77,20.49-.49,28.36a29.45,29.45,0,0,1-1.33-7.33c0-2.64.24-5.66-.07-8.5a13.17,13.17,0,0,0-1.48-5c-.2-.91-1.45-1.57-2-1.85Zm5.36,23.79c2.07-6.55,3.65-13.71,3.6-19.69-.05-5.52-1.43-8.72-2.85-10.39a4.45,4.45,0,0,0-2.47-1.61c-3.76-.64-6.52-2.06-9.17.11a12.18,12.18,0,0,0-3.73,7.5c-1.86.37-3.51.8-4.54.94a41.51,41.51,0,0,1-8.9.3c-1-3.45-2.55-6-6.73-5.52-2.26.28-5.14-1.12-6.61,1.35-4,6.8-3.08,23.61.9,31.22l-.13.41c-5.79.73-11.24,1.58-16.91,2.56a35.27,35.27,0,0,0-3.1-14.62,2.2,2.2,0,0,0-1.66-1.17c1.11-3,2.12-11.63-2.07-13-8.35-2.68-20,1.86-26.88,6.26-9.52,6.14-3,9.57,5.48,9.74,1.35,0,4.73.65,7,.87a.53.53,0,0,0-.1.49l2,5.87c-.2.84-1.29,5.33-2.07,10-2.36.57-4.67,1.16-6.91,1.76q-3.62,1-7,2c-1-.36-2.07-.75-3.06-1.18a4.49,4.49,0,0,0-4.44.47c-3.81-2.16-9.95-4.59-13.11-3.85a1.16,1.16,0,0,0-.83.55,60.11,60.11,0,0,0-4.59,11.82c-.28,1-.55,2.14-.8,3.32C7.41,176.11,0,182.29,0,190.29c0,12.86,19.34,21.82,32,26.47a.35.35,0,0,0,.14,0c2.48,2.39,6.44,4.82,11.88,7.07C54.55,228.2,73.78,236.3,85.15,236c5.2-.13,13-1.61,21.09-4l.09,0c51.65,5.3,113.21,3.25,159.55-6.48,20-4.2,55.82-13.91,62.6-30.1a13.36,13.36,0,0,0,.86-2.88c3.28-1.61,3.59-7.6-.43-10.11l-4.49-2.59c1.91-1.43,2.4-4.41,1.55-6.68l.68-.07c3.86-.53,5.09-7.54.51-10.4l-3.11-1.82c1.79-.15,2.9,0,4.14-1.27a4.45,4.45,0,0,0,.13-5.37,9.33,9.33,0,0,0-2.71-2.22c-2.29-1.43-17.88-9.4-23.39-12.82a9.07,9.07,0,0,0-5.14-1.55l-9.11.74.68-6.64a.49.49,0,0,0-.34-.52l-57.44-17.6a.5.5,0,0,0-.64.44l-1.53,34.61c-12.71-1.48-25.26-2.25-38.21-2.65a.41.41,0,0,0-.23.06,7.3,7.3,0,0,0-3.47-5.8c.09-2.69,0-1.25,1.1-3.93,2-4.79,2.13-10.32-1.32-14.66a8.51,8.51,0,0,0-7.07-3.48c0-3.41-3.19-5.15-6.66-5.7a22.8,22.8,0,0,0-9.66.85c-1.57-.43-4.42,0-7.22,1.09a21.38,21.38,0,0,0-4.7,2.47,14.13,14.13,0,0,0-5.79,3c-6.92,5.87-8.08,17.34-3.53,25-.15.18-.29.37-.42.56a47.72,47.72,0,0,0-7.13.48c0-.18-.09-.36-.14-.54a.35.35,0,0,0,.15-.2ZM95.15,119.48c.66.35,1.36,2,1.57,2.76a5,5,0,0,0-1.79,3.68,15.94,15.94,0,0,0,0,3,41.78,41.78,0,0,0-1.11,5.23c-1,7.16,1.19,10.67.42,14.11-3.23-7.47-4.15-23.17-.37-29.55,1.08-1.84,4.12-.67,5.88-.91,3.6-.49,4.88,1.68,5.77,4.48-2.34-.26-5.73-1.36-8-.49-.27-1.87-2.22-3.8-2.61-2.82a.38.38,0,0,0,.22.5Zm10.73,3.83a27.33,27.33,0,0,0,3.21.15,44.8,44.8,0,0,0,6.27-.48c2.38-.33,8.14-2.23,11.91-1.35-1,.55-1.88,1.89-2.36,4-.24,1-1,10.15-3.15,11.83a9.18,9.18,0,0,1-4.83,1.52c-4.35.35-12.91,1.31-17.47-.29-1.72-.6-2.62-3.25-2.94-4.88a32.42,32.42,0,0,1-.61-7.74c.63-5.51,5.43-3.16,10-2.72ZM93.46,150.77a10.76,10.76,0,0,0-.72,3.92c-5.48.58-10.88.58-16.36,2.23a18.1,18.1,0,0,0,.46-3.65c5.57-1,11-1.78,16.62-2.5Zm41.78,2.9a21.08,21.08,0,0,0-.64-6.87,52.34,52.34,0,0,1,6.4-.45,10.72,10.72,0,0,0-1.12,6.56,29.16,29.16,0,0,1-4.64.76Zm-94.16,47a50.26,50.26,0,0,1-13-7.08c-3.14-2.56-4.85-5.24-4.85-8,.69-1.06,1.43-2.07,2.2-3.06,1.82-2.32,3.81-4.51,5.78-6.89a7.32,7.32,0,0,0,2.32,2c6.52,3.61,14.1,6,21.57,8-.42.35-1.31.95-1.15,1.45s1,.44,1.34.52c-2.73,2-4.14,5-5.58,7.92a.49.49,0,0,0,.55.68l.57-.14a9.32,9.32,0,0,0-.73,1.74,56.63,56.63,0,0,0-9,2.93ZM22.43,186.8C23.55,193.49,33,198.3,40,201.13A38,38,0,0,0,31,206.42c-2.9,2.66-2.69,5.88-.15,9-11.77-4.46-30-13.13-30-25.15,0-7.42,6.9-13.26,13.55-17.33-.81,4.15-2,11.49-.5,15.26,1.65,4.24,5.78,3.44,8.14-.78l.37-.64ZM299,195.43c-6.64,4.33-17.39,8.24-31.21,11.5l-7.88-5.24v0a8.93,8.93,0,0,0-6.79-1.62l-36.53,5.24c-1.37.16-4.11.52-3.35,2.45a4.7,4.7,0,0,0,1.58,1.77l6.44,4.7a627.51,627.51,0,0,1-84.27,2,6.13,6.13,0,0,0-.87-7.1c-2-2.53-6.34-5.22-14.51-7.64a11.57,11.57,0,0,0,.86-2.91.36.36,0,0,0,.26-.22l1.45-3.52h0c6.8-.17,15.66-.8,21.8-2.88,3.62,5.38,9.31,10.83,15.67,10.63,10.41-.34,10.59-10.2,9.07-18.17a36.23,36.23,0,0,0,6.93,1.62,133.79,133.79,0,0,0,1.21,15.61,18.83,18.83,0,0,0-6.1.77,5.28,5.28,0,0,0-2.6,1.7c-2.17,1-3.3,2.19-3.5,3.41-1.25,7.52,28,10.08,38.17,3.72,3.77-2.36,3.9-5.41-.09-6.62-1-3-6.85-3.59-10.2-3.27a103.9,103.9,0,0,0,1.14-16.08,44.44,44.44,0,0,0,5-1.35c1.14.77,24.24,12.6,24.45,12.69,5.1,2.09,3.55,2.55,9.55,1.48l48.05-8.22c.57-.1.43-1.28.45-1.71l12.31,7.49a18.55,18.55,0,0,0,3.47-.2Zm-30.25,12.14c14.45-3.46,25.5-7.64,31.94-12.27.21-.15,26-2.18,27.76-2.45-1.64,7.37-9.73,13.14-17.83,17.34-10.93,5.66-26.31,10.61-44.88,14.51-45.76,9.59-106.17,11.67-157.3,6.64,9.18-2.88,19.3-7.22,25.7-11.87a10.31,10.31,0,0,0,2.34-2.4c9.36.42,18.84.62,28.33.62,20.47,0,39.94-1,57.53-2.72,3.84,2.73,7.64,5.39,8.42,5.93,2.79,1.95,4.77,1.07,8,.67,2.41-.29,17.76-3.07,27.4-4.67,3.06-.51,5.54-.9,6.84-1.05,4.1-.46,4.43-2.54,1-4.76-1.57-1-3.33-2.21-5.28-3.52Zm-39.07-58.1c.13-.17.07-.32,0-.5L231,118.12l56.24,17.57-4.63,45.22L229.2,159.59l.45-10.12ZM42.93,161.11c4-1.2,8.14-2.28,12.32-3.29-.29,1.94-.52,3.87-.6,5.55a62.91,62.91,0,0,1-11.72-2.26Zm221.42-3.39c-2.1-.82-3.94.89-4.39,3.69-.6,3.74,1.82,5.56,3.7,3.57-.05.54-.31,2.08.26,2.18s.58-.92.63-1.46l1.06-11.43a.47.47,0,0,0-.93-.07l-.33,3.52Zm-.11,1c-.84-.73-2.84-.22-3.33,2.8-.71,4.45,2.69,4.15,3.08-.07l.25-2.73Zm3.05,4.3c.43.11.53.78.29,1.24-.15.29-2.32,2.5-1,2.92.68.21,1.74.69,1.95.07s-.9-.78-1.32-.9l1.19-1.66c1.16-2.27-2.2-3.95-2.18-1.1a.47.47,0,0,0,.94,0l.1-.56Zm9-13.93c.43.12.53.78.29,1.24-.15.29-2.32,2.51-1,2.92.68.21,1.74.7,1.95.07s-.9-.78-1.32-.9l1.19-1.66c1.16-2.27-2.2-4-2.18-1.1a.47.47,0,0,0,.94,0l.1-.56Zm-11.21.59.22-3.73a.48.48,0,0,0-.77-.41c-.37.27-1.57.89-1.14,1.46.27.35.63.14.9-.06l-.15,2.69a.47.47,0,0,0,.94.05Zm1.57-6.33a47.46,47.46,0,0,1-.33,5.72.47.47,0,0,0,.94.1c.2-1.5.63-4.22,1.63-5.11.64-.57.6.71.56,1.2l-.41,4.85a.48.48,0,0,0,.94-.06c.16-1.56,1.71-6.42,2.2-5.08s-1.25,5.31.21,6.42c1.18.89,3-1,2-1.42-.65-.33-.88,1.06-1.43.64-1-.76,1.58-6.43-.79-6.8-.78-.12-1.39.55-1.77,1.34.11-2.45-1.68-3-2.82-.91,0-.85,0-1.89-.83-1.89-.24,0-1.73.64-1.1,1.26.36.36.7-.08,1-.26Zm-11.88-4.18a45.35,45.35,0,0,1-.33,5.72.47.47,0,0,0,.94.11c.2-1.5.64-4.23,1.63-5.11.64-.57.6.71.57,1.2l-.42,4.84a.48.48,0,0,0,.94-.06c.16-1.56,1.72-6.41,2.2-5.08s-1.25,5.31.21,6.42c1.18.9,3-.94,2-1.42-.66-.33-.88,1.06-1.43.65-1-.76,1.58-6.44-.8-6.81-.78-.12-1.39.56-1.76,1.34.1-2.44-1.69-3-2.83-.91,0-.85,0-1.88-.83-1.89-.24,0-1.73.65-1.1,1.27.36.35.7-.08,1-.27Zm22.56,16.25-23.09-7.34a.49.49,0,0,0-.29.93l23.09,7.3a.47.47,0,0,0,.29-.89Zm-25.66-13c-.87-4.08-4.78-3.6-4.76,1.93,0,5.69,4.51,6.48,4.75,1.27,0-.56-.78-.62-1.18-.72-.87-.19-1.73-.48-1.82.18s1.18.65,2,.87c-.35,3.76-2.77,2.29-2.79-1.6,0-4.06,2.2-4.91,2.88-1.73a.47.47,0,0,0,.92-.2Zm-10.35,3.61,3,.95a.49.49,0,0,0,.28-.93l-3-.91a.47.47,0,0,0-.27.89Zm.1-2.53,3,.95a.49.49,0,0,0,.28-.93l-3-.91a.47.47,0,0,0-.27.89Zm-2.29-2.71-1.4-.39.13-2.59,2.17.63a.47.47,0,0,0,.26-.9l-2.74-.8a.48.48,0,0,0-.61.43l-.42,8.23a.49.49,0,0,0,1,0l.2-4.06c.42.11,1.6.63,1.77,0a.46.46,0,0,0-.33-.57Zm48.28-6.08-56.29-17.58.1-2.4,56.47,17.29-.28,2.69Zm-58.22,25.83,53.39,21.31-.27,2.65-53.22-21.66.1-2.3Zm54.34,21.12.24-2.3c.76.47,10.73,6.74,11.26,6.7l30.65-2.47c4.36-.34,4.08,1.16,4.83,2a5.37,5.37,0,0,1,.44,2.2c0,2-1.06,3.86-2.64,4.08l-9.75.86-22.64,2L283.25,187c0-.46.27-2.17-.06-2.44l.3-2.9Zm-96.9,8c-9.68.26-9.87,4.93.57,4.37,2.57-.13,7.56-.86,6.8-2.75-.62-1.53-4.71-1.72-7.37-1.64v0Zm0,.6c2.32-.07,6.32.14,6.77,1.26.13.32-.33.6-.6.75-3.33,1.88-13.82,1.34-12.73-.38.68-1.07,3.8-1.56,6.56-1.65v0Zm-9-7.54c0,.77,0,1.53,0,2.3a34.68,34.68,0,0,1-7.14-1.76c-.75-3.51-2.7-10.3-3.48-11.54a4.25,4.25,0,0,0-1.66-1.49,8.57,8.57,0,0,0,.81-3.22,11.61,11.61,0,0,0,5.7-.38.31.31,0,0,0,.1.05c4.4,1.94,11.87,4.49,15.91,4.5,4.19,0,7.64-.52,14.08-1.39a.2.2,0,0,0,.11,0c.13.67,2.38.67,2.86,5.75.12,1.19,0,5.35-1,5.93a31,31,0,0,1-8.23,2.8c0-.48.15-2.38-.19-2.64,1.39-3.47-12.66-3.35-16.46-1.28-1.12.6-1.59,1.33-1.29,2.13a.43.43,0,0,0-.1.27Zm1.56,19.77c.32.14,4.42-.17,6.3,2-1.15.32-4.93,2-5.09,3.53a1,1,0,0,0,0,.24,24.87,24.87,0,0,1-8.07-1c-3.35-1.13-1.84-3.83,2.68-4.52a26.3,26.3,0,0,1,4.18-.26Zm.64-.85a146.65,146.65,0,0,1-1.25-15.52,54.16,54.16,0,0,0,16.15-.69,107.16,107.16,0,0,1-1.21,16c-1.9.3-4.67,1.17-5.48,2.67l-1.65.21c-1.36-2-4.15-2.56-6.56-2.68Zm-1.27-16.5c0-.59,0-1.17,0-1.76,1.53,1,4.35,1.27,8.07,1.09v0c3.55-.17,6.57-.77,8.12-2v1.94a53.71,53.71,0,0,1-16.18.71Zm8-1.64c-3.25.16-6.66-.07-7.76-1.14-.49-.49.22-.93.68-1.18,3.77-2.06,16.63-1.47,14.92.33-1.17,1.22-4.69,1.85-7.84,2v0Zm140.85-.85a82.72,82.72,0,0,0-8.92.57l-23.46,1.87c-.43-.1-10.29-6.21-11.23-6.79L284,177l8.7,5.58a.42.42,0,0,0,.29.07s12.13-.82,20.94-1.44c5.38-.38,8.9-.49,9.84-.91a.47.47,0,0,0,.24.43l3.46,2Zm-1.75-19.74a14.66,14.66,0,0,0-1.87,0c-1.82.14-30.14,2.51-30.51,2.42l-7.69-4.4.21-2,7.64,4.58a.51.51,0,0,0,.3.06L322.4,161l3.3,1.9ZM285.52,162l7.44,4.27c.32.18,6.6-.42,7.47-.49l23.46-1.91c4.36-.34,4.08,1.16,4.83,2a5.34,5.34,0,0,1,.44,2.2c0,2-1.06,3.86-2.64,4.07L294.13,175c-.63-.38-3.25-2-5.69-3.37-1.45-.83-2.83-1.59-3.7-2l.78-7.59ZM325,152.78a16.19,16.19,0,0,0-1.83,0c-1.8.14-30.16,2.5-30.51,2.42l-6-3.63,1.27-12.25,9.38-.76c.94-.2,3.1.59,4.47,1.44,5.55,3.46,20.57,11.14,23.24,12.76Zm-38.47-.12c.72.43,5.68,3.58,6.05,3.55l30.65-2.46c2-.15,4-.18,4.63,1.75a2.37,2.37,0,0,1,.33,1.17,2.73,2.73,0,0,1-2.92,3.16c-.29,0-4.37.34-9.51.8-8.67.77-20.38,1.84-21.88,2L286,157.88l.54-5.22Zm-28.42,50.58a6.82,6.82,0,0,0-5.25-1.25l-32,4.62c-2.16.53-.83,1.91.53,2.84l12.88,9c2.2,1.54,2.43,1,4.9.75.9-.11,4.44-.7,8.78-1.45,7.63-1.31,17.75-3.1,20.42-3.56,3.62-.62,5.61-.5.75-3.59-3.69-2.35-6.69-4.51-11-7.33ZM271.32,213a13.91,13.91,0,0,1-3.1.58s-30.32,5.38-31.58,5.31a4.08,4.08,0,0,1-2.07-1l-12.88-9c-2.45-1.67-1.31-1.78,1.08-2l30.15-4.37a6.28,6.28,0,0,1,4.82,1.16h0c.9.58,12.7,8.4,13.3,8.95l.28.31Zm-24.87-5.07c1.62,1.43-1.24,2-2.77.64s1.23-2,2.77-.64Zm1.77.19c1.82,2.35-2.36,3.06-5.24,1.21l-.13,1c3.91,2,8.66,1.16,7.28-1.69l-1.91-.54Zm5.27,1.51c.43,1.64-.53,3-2.82,3.55a14.13,14.13,0,0,1-8-1l.11-.86c4.59,2,10.34,1.36,9.15-2.12l1.61.47Zm5.88-7.17,14.11,9.42c2.6,1.71,2.56,2.67-.62,3-1.31.15-3.81.53-6.89,1-9.63,1.59-25,4.37-27.36,4.66-3,.36-4.8,1.26-7.32-.5-1.63-1.14-12.84-9-15.89-11.37-2.23-1.71-1.38-2.23,1.25-2.46L253.26,201a7.92,7.92,0,0,1,6.1,1.47v0ZM325,173.27c.9,2.1.3,5.93-2.22,6.27-.29,0-4.12.31-9,.64-8.21.58-19.31,1.34-20.77,1.44l-8.6-5.51a.48.48,0,0,0-.4-.06l.56-5.42c1.8.87,9,5.16,9.12,5.25a.46.46,0,0,0,.3.07l31-2.68ZM17.43,180h0a4.56,4.56,0,0,1,0-.73,46.32,46.32,0,0,1,2.28-10.95,42.49,42.49,0,0,1,5-11.1,28.46,28.46,0,0,1,8.57,3.32c-3.5,3.14-5,10-2.56,14.22-.34.17-6.08,7.16-7,8.44a18.8,18.8,0,0,0-6.2-3.19Zm6.21-23c-2.37,3.53-4.34,8.78-5.61,13.42-.88,3.19-2.51,9.89-1,10.44A18,18,0,0,1,23.07,184a32.68,32.68,0,0,0-1.86,3c-2.91,5.2-7.84,4.28-6.94-5.9a71,71,0,0,1,2.14-12.35,59.14,59.14,0,0,1,4.5-11.61,7.07,7.07,0,0,1,2.73,0ZM17.39,180c0,.12.17.06,0,0Zm16.88-19.07c.61-.26,1.78-1.44,3.78-.57,14.16,6.15,35.76,4.57,43.55,3.36.5-.08,3.67-4,9.3-6.54a16.59,16.59,0,0,1,6-1.51c-4.91,6.16-6.6,18.94-6.36,26.55a28.46,28.46,0,0,0-9.74-3.59.49.49,0,0,0-.52.67l.41.92a27.22,27.22,0,0,0-14.47-1.55.48.48,0,0,0-.32.76l.7,1a23.79,23.79,0,0,0-10.6,4.4c-7.65-2-15.39-4.37-22.07-8.07-5.45-3-4-12.58.29-15.79Zm15-22.25c0-1.74-1.58-4.45-1.67-6.45,6.35-3.5,16-6.87,23.19-4.59.29.09,1.2.64,1.25,1a17.65,17.65,0,0,1-.85,7.83s0,0,0,.05c-4-.23-10.41,2.06-13.44,3.16a14.4,14.4,0,0,0-2-.11c-2-.2-4.86-.71-6.47-.85Zm22.45-11.64a2.93,2.93,0,0,0-.65-.29c-7.53-2.43-17.39,1-24.05,4.68-1.35.75,1.14,5.43,1.27,7.2-2.47-.07-11.07-.82-8.3-4.76a13.49,13.49,0,0,1,3.7-3.16c6.58-4.25,18-8.74,26.05-6.17a3.36,3.36,0,0,1,2,2.5ZM55.62,163.47c.23-5.06,2.31-14.39,2.84-16.51.09-.34-1.65-5.13-1.89-5.84,1.6-.61,11.57-4.43,15.33-3.56a1.27,1.27,0,0,1,1,.62c2.43,5.37,3.95,13.94,2.51,18.91a.39.39,0,0,0,0,.15,37.67,37.67,0,0,0-8.06,4,.24.24,0,0,0,.24.41,44,44,0,0,1,10.65-4.19c4.79-1.19,9.15-1.2,13.83-1.74-5.92,2.09-10.54,7-10.73,7.07a119.19,119.19,0,0,1-25.67.66Zm42.64-7.85c.48-.27,1-1.41,2.72-1.57a39.87,39.87,0,0,1,4.48,0c7.66.27,26.32,2,34.61-.19a9.94,9.94,0,0,0,9,7.85,7.41,7.41,0,0,0,5.11-1.42l.4,3.68c-3.82-3-9.73-2.8-14.67,1.87-.95.9-.52,1.17.28.54,4.25-3.32,9.09-5.35,14.7-.9.12.54.25,1,.39,1.51.2.68.4,1.28.58,1.77-.92.09-3.8.56-4.29,2-1.26,3.62-.11,18.65,2.6,23.54a.21.21,0,0,0,.37-.2c-1-2.11-2.07-11.32-2.27-13.82-.32-3.92-.34-7.54.23-9.2.36-1,3.34-1.22,3.73-1.37l.23.51,0,2.71c-2.58-.55-3.07-1.44-3.36-1.07-.47.59,2.32,1.73,2.91,1.91,2.72.85,7.13.92,9.48-.95a.38.38,0,0,0-.46-.61,4.22,4.22,0,0,1-1.19.55,10.19,10.19,0,0,0,1.17-1.65c1.34.79,1.6,1.54,2.07,3.16s1.7,5.13,2.58,9.27a.47.47,0,0,0,.09.44,29.69,29.69,0,0,1,.59,9.92c-.72,4.8-3.47,7.56-8.64,7.73-3.81.12-7.48-1.93-10.7-5.13a33.58,33.58,0,0,1-4.24-5.23l-.18-.27a46.37,46.37,0,0,1-5-10.42q-.39-1.14-.69-2.25c-1.22-4.4-1.91-3.23-.94.26a46.55,46.55,0,0,0,5.6,12.56c-5.92,1.92-14.41,2.55-20.94,2.73,1-2.83,3.84-10.64-1.94-9.56a15.35,15.35,0,0,0-4.78,2.08l0,0a19.56,19.56,0,0,0-9.84-6.68c.75-2,2.11-6.33-.21-7.49-2.14-1.07-5.85,1.54-7.66,3.09a29.27,29.27,0,0,0-2.33,2.26l-.1,0a15.34,15.34,0,0,0-6.07,4.21c-.16-7.18,1.6-20.79,6.71-26.17Zm56.89,4.45a17.41,17.41,0,0,1,1-6.54c1-2.79,2.65-5.93,4.31-6.76.41-.21.57-.14.64.29a2.79,2.79,0,0,1,0,.82,13.86,13.86,0,0,0-2.63,5.67c-.17.83-.29,1.62-.5,2.4a.21.21,0,0,0,.4.15l1.1-2.77a14.76,14.76,0,0,1,3.23-5.76c1.52-1.66,2.78-.58,2,1.69-1.65.53-3,3.26-3.57,5.14-.1.3-1,3.37-.48,3.45a.21.21,0,0,0,.24-.18c.36-2.13,2.36-6.92,4.08-7.45.31-.1.43.16.51.67.19,1.18-.11,3.4-1.22,7-.9,2.94,1.12,4.6,1,9.13a8.81,8.81,0,0,1-.81,3.46,8.93,8.93,0,0,1-1.67,2.51,16,16,0,0,1-5.94,0,21.71,21.71,0,0,0,.29-3,40.48,40.48,0,0,1-2-9.87Zm65.72,5.16h0l7.61-1.53L281,185.06l-48,9.59c-3,.8-4,.43-6.67-1.11l0,0-22.29-11c1.09-.56,1.41-1.4,1.69-2.73,3.84.76,12.15.63,15.77-1.12,2.22-1.07,1.9-3.15-.41-3.88-2.63-.84-5.1-.27-7-.36a13.74,13.74,0,0,1,2.7-1.33c2.51-1,6,.61,8.24,1.75,3.39,1.7,5.6-.82,1.71-4.15a.42.42,0,0,0,0-.31,8.82,8.82,0,0,0-5.83-5.15Zm-16.9,5a17.37,17.37,0,0,1,10.48-5.69,10.27,10.27,0,0,1,3.44.23,9.61,9.61,0,0,0-6.16,2,.26.26,0,0,0,.35.39c1.73-1.45,5.63-1.6,7.78-1.13a9,9,0,0,1,5.58,3.7,11.43,11.43,0,0,0-11.63-.88.27.27,0,0,0,.25.47c7.79-4,16.24,4.81,13.1,5.1-1.4.12-3.78-1.77-6.92-2.41a6.92,6.92,0,0,0-3.85.15c-.57.22-3.88,1.45-3.71,2.57.22,1.39,4,.21,7.31.84,2.15.4,2.83,1.55.53,2.42-3.65,1.39-11,1.71-14.69,1.05.38-2.78,0-6.7-1.86-8.78Zm-2.07,13.21c.38-.15.74-.3,1.09-.46a.41.41,0,0,0,.2.19l22.66,11.2c3.15,1.68,3.91,2,7.39,1.21l49.15-9.83-.18,3.22-47.69,8.12c-5.82,1-4,.65-9-1.42L201.9,183.46ZM166.2,166c-.06-3.7-1.71-5.45-1-7.82,1.06-3.44,2.28-8.52.12-9,1.26-2.86-1.11-4.63-3.34-2.42-.27-1.27-1.41-1.41-2.52-.59a9.64,9.64,0,0,0-2.25,2.69,8.93,8.93,0,0,0-2.06-3.79,10.35,10.35,0,0,0,2.15-8.49c2.19.67,4.47-1.61,5.42-3.21-.33,3.64.78,6,4.21,2.86,2.76-2.51,4-5.62,4.94-9.13-.07,1.09-.13,2-.18,2.23-1.5,8.54,5.46,2.9,7.48-8.07,4.13,2.35,6.65,10.78,6.69,14,.08,5.8-.18,13.36-1.81,18a21.15,21.15,0,0,1-10,11.45c-3.15,1.51-6.14,1.74-7.81,1.25Zm-10-30.17a10,10,0,0,1-1.71,8.62A9.37,9.37,0,0,0,150,142.1a23.24,23.24,0,0,1,.13-11.3c1.46-5.81,5.92-13.39,11.68-15.86.56-.24,1.13-.44,1.72-.63,5.09-1.63,16.43-2.27,15,5.93A33.64,33.64,0,0,1,175,130c-2,3.1-3,3.64-2.33-.47.07-.47.14-3.16.28-5.23.23-3.59-.47-3.68-.81-.43-.26.92-.61,2.11-1.06,3.4-1.09,3.16-2.23,5.75-4.64,8.15-3.71,3.7-2.79-2.46-2.37-4.56.51-2.54.77-5.85-.92-.78a13.11,13.11,0,0,1-1.23,2.72c-.72,1.26-3.85,4.6-5.18,2.09s-.19-7.64.88-10.36a.25.25,0,0,0-.47-.19c-1.39,3.33-2.79,9-.93,11.49Zm-13.65,8.39c-4.77-8.45-2.3-21.64,7-25.85-6.07,6.39-7.77,16.16-5.26,24.54a7.83,7.83,0,0,0-1.76,1.31Zm44.19-2.89c4.53,3.31,2.6,13.15-2.44,14,1.76-3.85,2.24-7.91,2.44-14Zm-8.34,15.1c-1.33,1.73-3.73,3.08-5.92,2.56-1.8-.43-2.43-1.65-2.78-1.35-.51.43,1.41,1.88,2.09,2.15a5.54,5.54,0,0,0,6.5-2.17c.92-1.49.23-1.4.11-1.19Zm.89-18.07c-2.46,5.18,1.35,7.83,2.5,14.08.5,2.69-2.11,2.78-3.86,2.07a.26.26,0,0,0-.2.47c2.35,1.1,5.62.9,5-2.71-.91-5.69-4.68-9.18-3.09-13.76a.21.21,0,0,0-.39-.15Zm-5.7,1.67c-1.1-2.52-5-2.16-6.05.25-.84,1.85,0,2,.13,1.57a3.46,3.46,0,0,1,3.56-2.5c1.42.2,2.05,1.14,2.3,1a.22.22,0,0,0,.06-.29Zm11.27,1.27a2.63,2.63,0,0,0-3.84-2.83c-1.37.81-.92,1.55-.51,1.18a2.34,2.34,0,0,1,3.45.67c.28.49.5,1.21.7,1.2a.2.2,0,0,0,.2-.22ZM182,142c1.8-.05,1.89,3.09.09,3.14S180.2,142,182,142Zm-10.76.59c1.82-.05,1.9,3.09.08,3.14s-1.9-3.09-.08-3.14ZM156.59,150a19.81,19.81,0,0,0-2.45,8.95c-.28.16-1.14,2-5,1.79-6.45-.41-10.16-7.73-7.45-13.52,2.23-4.76,7.77-5.58,11.72-2.55a7.91,7.91,0,0,1,3.22,5.33Zm-11.54-7.47c-2.2-8-.49-17.33,5.21-23.46,2.33-2.49,7.7-4.83,11.18-5.07-6.1,2.6-10.74,10.4-12.29,16.54a24.28,24.28,0,0,0-.22,11.4,8.74,8.74,0,0,0-3.88.59Zm34.44-23.76c5.44.2,8.86,6.14,8.83,11a21.4,21.4,0,0,1-1.46,7c0-.48,0-1,0-1.5,0-3.72-2.79-12.6-7.47-15h0a14.62,14.62,0,0,0,.15-1.53Zm-58.32,83.52c8,2.35,12.22,4.92,14.2,7.39,3.17,4,.18,7.54-1.83,9-11.24,8.17-35.44,16-48.42,16.35C74,235.33,54.74,227.23,44.4,223c-6.1-2.52-15.09-7.43-14.45-12.72a5,5,0,0,1,1.75-3.09A37.71,37.71,0,0,1,40.54,202a57,57,0,0,1,9.25-3.15,11.22,11.22,0,0,0,.48,5.91c-3.64-2.12-7.81-.31-7.67.05a.11.11,0,0,0,.15.06,9.71,9.71,0,0,1,4.35-.27A9.28,9.28,0,0,1,51,206.38a17.1,17.1,0,0,0,2.58,3.78A15.9,15.9,0,0,0,48,211.33a.11.11,0,0,0,.06.22,29.7,29.7,0,0,1,6.35-.33,39.33,39.33,0,0,1,19.32,6.1c.58.36.4.61.82.56s1.8,1.61,2.07,1.32-1-1.24-1.22-1.44a24.7,24.7,0,0,0,4.41-1.1,21.31,21.31,0,0,0,2.3-1,23.09,23.09,0,0,1,3.75,1.6A11.32,11.32,0,0,1,89,220.12a.12.12,0,0,0,.19-.13,10.18,10.18,0,0,0-5.29-4.67c-.21-.09-.44-.17-.68-.25L85,213.79a16.58,16.58,0,0,1,7.8.64c-.1,1.38.77,1.43,1.84,1.52.07,1.52,2.23,1.82,3.42,1.63,1.21,1.37,5.44.89,7.23.58-.34.54-1.88,3.43-1.59,3.57a.11.11,0,0,0,.15,0,35.76,35.76,0,0,1,5-6.31c3.48-3.26,6.94-4.29,11.37-5.56,1.77-.5,2.25-.6-.15-.51l-1.61.16a7.82,7.82,0,0,0,.54-3.81c0-.13,0-.23,0-.31a13.78,13.78,0,0,0,2.23-3Zm-3.55,7.3a19.77,19.77,0,0,0-11.93,7.86c-.93,0-6.74.27-7-.64-.18-.74,1-4.89,4-3.85a.26.26,0,0,0,.19-.48c-3.58-1.54-5.29,2.57-5.16,4.44-.42-.07-2-.5-2.09-.84-.18-.58.48-3.36,2.34-3.67.27,0,1.18,0,1.22-.3.06-.53-2-.65-2.92.06a5.59,5.59,0,0,0-1.64,3.21c-1-.2-1.26-.22-.95-1.23a4.08,4.08,0,0,1,4.08-2.94c1.33,0,5.71-.22,6.87-2.17a13.53,13.53,0,0,0,13.43-2.88l-.44,3.43Zm-14.18-18.68A4.08,4.08,0,0,0,99,187.06c-2,.24-1.56.88-1.19.83a5.68,5.68,0,0,1,3.15.63c1.5.94,1.79,2.87,2.28,2.74a.27.27,0,0,0,.2-.33Zm11.17,6.61c-.17-2.12-1-4-3.43-4.11-.31,0-1.65.13-1.62.52s2,0,3.14,1.12c.79.78,1.21,2.94,1.72,2.81a.27.27,0,0,0,.19-.34Zm-14.53-1.19c-3.34.92-6.71-2.86-5.53-5.65a.26.26,0,0,0-.46-.23c-2,3.62,1.75,7.13,4.65,6.85,2.21-.21,1.81-1.16,1.34-1Zm13.28,6.07c-2.46,2.27-6.89-.72-7.35-3a.25.25,0,0,0-.5.07c.32,3.47,4.68,5.74,7.11,4.38.22-.13,1.58-1.08,1.12-1.46a.26.26,0,0,0-.38,0Zm-10.94.43a7.9,7.9,0,0,0-3.67-1.93,15.59,15.59,0,0,1,4.16-2.66c.3,1.21-.2,3.34-.49,4.59Zm-2.61,1.52c.66.22,3.09.32,1.84-.85-.71-.67-2.62-1.84-3.7-1.64a1.79,1.79,0,0,0,.88,2c.07-1-1-.89-.9-1.31s1.44.08,1.6,1.09c1-.45,2,.25,1.59.64s-.57-.47-1.31,0Zm52.57-49.6c2.44-3.91-1.26-9.25-5.46-7.79-3.66,1.28-4.17,6.93-1.17,9.09,2.05,1.47,5.44,1.15,6.67-1.28l0,0Zm-.41-.23c-1.55,2.55-6.27,2.13-7-1.66-.95-4.71,4.18-7.07,6.69-3.1a4.88,4.88,0,0,1,.38,4.78l0,0Zm46.5,53.3c-.23-1.71-2.09-2.71-3.61-3.16a18.94,18.94,0,0,0-5.72-.61c2.69-2.67,12.78-2.63,14.63.51a1.39,1.39,0,0,1-.35,1.83c-.84.78-2.49,1.34-4.95,1.43Zm-.87.12a.45.45,0,0,0-.09.55c-.53,1-2.59,1.68-3.76,1.89a25.39,25.39,0,0,1-6.21.2c-.22,0-6.38-.92-6.23-2.45.07-.68,1.39-1.29,1.8-1.55,2.36-1.57,5-1.75,7.77-1.6,1.88.1,5.92.46,6.67,2.74a1.74,1.74,0,0,1,0,.22Z"/></g></g></svg>